<?xml version="1.0" encoding="utf-8"?>
<!-- Generator: Adobe Illustrator 24.1.2, SVG Export Plug-In . SVG Version: 6.00 Build 0)  -->
<svg version="1.1" id="Layer_1" xmlns="http://www.w3.org/2000/svg" xmlns:xlink="http://www.w3.org/1999/xlink" x="0px" y="0px"
	 viewBox="0 0 192.1 95" style="enable-background:new 0 0 192.1 95;" xml:space="preserve">
<style type="text/css">
	.st0{fill:#01A0C6;stroke:#FFFFFF;stroke-linecap:round;stroke-linejoin:round;stroke-miterlimit:10;}
	.st1{fill:#FFFFFF;}
	.st2{fill:none;}
	.st3{fill:none;stroke:#FFFFFF;stroke-linecap:round;stroke-linejoin:round;}
</style>
<path class="st0" d="M55,39.3c0,0-16.7-6.2-27.7-7.1c-11.1-0.9-15.1-0.7-18.9-0.3S3.2,32.1,3,33.5c-0.2,1.4-0.3,2.8,0.4,3.3
	c0.7,0.5,2.7,1.2,3,3.1S9.3,50.5,10.9,53s2.1,4.6,5.6,6.9c3.5,2.3,10.4,4.5,17.6,5.1s13.2-3.3,14.7-5.2c1.5-1.9,4.8-6.8,5.7-9.1
	s1.4-4.8,4.1-4.9c2.7-0.2,5.1-0.1,6.3,3.2c1.2,3.3,4,8.4,5.8,10.4c1.8,1.9,6.1,5.2,9.9,5.7s8.4,0.4,16.3-1.4
	c7.8-1.8,10.6-6.8,11.5-8c0.9-1.2,4.6-10.1,4.9-13.1c0.3-3,2.2-5.7,3.8-6.4c0,0,1.4-2.7,0-4.2c-1.4-1.5-24-1-35.6,2.3
	C69.7,37.6,64.2,42.4,55,39.3z"/>
<path class="st1" d="M36.5,35.5c0,0-12.1-1.9-15.7-1.8S10.7,33.6,10.1,37c-0.7,3.5,1.2,11.2,2.8,14.7c1.7,3.5,5.6,8.1,10.3,9.3
	s14.1,2.8,19.4,0.4C47.9,59,53,49,52.4,45.7S53,39.3,36.5,35.5z"/>
<path class="st1" d="M83.7,35.5c0,0,12.1-1.9,15.7-1.8s10.1-0.1,10.7,3.4c0.7,3.5-1.2,11.2-2.8,14.7c-1.7,3.5-5.6,8.1-10.3,9.3
	s-14.1,2.8-19.4,0.4C72.3,59,67.3,49,67.8,45.7S67.2,39.3,83.7,35.5z"/>
<polygon class="st2" points="43.1,52.9 47.4,52.9 47.4,52.9 43.1,52.9 "/>
<g>
	<path class="st0" d="M119.6,54.6l9.2-23.1h3.1l9.2,23.1h-3.5l-2.5-6.5h-9.6l-2.5,6.5H119.6z M126.7,45.1h7.3l-3.7-9.6L126.7,45.1z"
		/>
	<path class="st0" d="M146.7,54.6V31.5h8c1.6,0,2.9,0.2,4,0.6c1.1,0.4,1.9,1,2.3,1.7c0.5,0.7,0.8,1.4,1,2c0.2,0.6,0.3,1.3,0.3,2
		c0,0.7-0.1,1.3-0.3,1.9c-0.2,0.6-0.4,1-0.7,1.4c-0.3,0.3-0.5,0.6-0.8,0.9c-0.3,0.2-0.5,0.4-0.7,0.5l-0.3,0.1l0.4,0.2
		c0.2,0.1,0.5,0.2,1,0.5c0.5,0.3,0.9,0.6,1.2,1c0.4,0.4,0.7,0.9,1,1.6c0.3,0.7,0.5,1.4,0.5,2.2c0,0.8-0.1,1.5-0.3,2.1
		c-0.2,0.7-0.6,1.4-1.1,2.1c-0.5,0.7-1.4,1.3-2.5,1.7c-1.2,0.4-2.6,0.6-4.3,0.6H146.7z M150,41.3h4.7c1.4,0,2.5-0.2,3.3-0.7
		c0.8-0.5,1.1-1.4,1.1-2.7c0-1.3-0.4-2.3-1.2-2.8c-0.8-0.5-2-0.8-3.5-0.8H150V41.3z M150,51.8l5.2,0c1.8,0,3.1-0.3,4-0.9
		c0.9-0.6,1.3-1.6,1.3-3c0-1.4-0.5-2.4-1.4-2.9s-2.3-0.8-4.1-0.8h-5V51.8z"/>
	<path class="st0" d="M170,48c-0.4-1.4-0.6-3.1-0.6-5c0-1.9,0.2-3.6,0.6-5c0.4-1.4,1-2.6,1.7-3.4c0.7-0.9,1.5-1.5,2.5-2.1
		c1-0.5,1.9-0.9,2.9-1.1c0.9-0.2,1.9-0.3,3-0.3c2.4,0,4.8,0.5,7.1,1.4v3c-2.2-1-4.4-1.5-6.7-1.5c-2.7,0-4.7,0.7-5.9,2.1
		c-1.2,1.4-1.8,3.7-1.8,6.8c0,3.1,0.6,5.4,1.8,6.8c1.2,1.4,3.2,2.1,5.9,2.1c2.3,0,4.5-0.5,6.7-1.5v3c-2.3,0.9-4.7,1.4-7.1,1.4
		c-1.1,0-2.1-0.1-3-0.3c-0.9-0.2-1.9-0.5-2.9-1.1c-1-0.5-1.8-1.2-2.5-2.1C171,50.6,170.5,49.5,170,48z"/>
</g>
<g>
	<g>
		<path d="M119.6,63.7c0-2.4,1.5-3.6,4.4-3.6c2.9,0,4.4,1.2,4.4,3.6c0,2.4-1.5,3.6-4.4,3.6C121.1,67.3,119.6,66.1,119.6,63.7z
			 M121.4,61.4c-0.5,0.5-0.8,1.2-0.8,2.2s0.3,1.8,0.8,2.2c0.5,0.5,1.4,0.7,2.5,0.7c1.2,0,2-0.2,2.5-0.7s0.8-1.2,0.8-2.2
			s-0.3-1.8-0.8-2.2s-1.4-0.7-2.5-0.7C122.8,60.7,122,61,121.4,61.4z"/>
		<path d="M132.5,67.2v-7.1h3.3c1.1,0,1.9,0.2,2.4,0.6c0.6,0.4,0.8,0.9,0.8,1.6c0,0.7-0.3,1.3-0.8,1.6c-0.6,0.4-1.4,0.6-2.4,0.6
			h-2.3v2.7H132.5z M133.6,63.8h2.2c0.5,0,0.9,0,1.2-0.1c0.3-0.1,0.6-0.2,0.7-0.4c0.2-0.2,0.3-0.3,0.3-0.5s0.1-0.3,0.1-0.5
			s0-0.4-0.1-0.5s-0.2-0.3-0.3-0.5c-0.2-0.2-0.4-0.3-0.7-0.4c-0.3-0.1-0.7-0.1-1.2-0.1h-2.2V63.8z"/>
		<path d="M142,60.9v-0.7h7.6v0.7h-3.3v6.4h-1v-6.4H142z"/>
		<path d="M153.3,67.2v-7.1h1v7.1H153.3z"/>
		<path d="M158.5,63.7c0-2.4,1.5-3.6,4.4-3.6c1,0,2,0.1,2.9,0.4v0.7c-0.9-0.3-1.8-0.4-2.8-0.4c-1.2,0-2.1,0.2-2.6,0.7
			c-0.6,0.5-0.8,1.2-0.8,2.2s0.3,1.8,0.8,2.2c0.6,0.5,1.4,0.7,2.6,0.7c1,0,1.9-0.1,2.8-0.4v0.7c-0.9,0.3-1.8,0.4-2.8,0.4
			c0,0,0,0,0,0C159.9,67.3,158.5,66.1,158.5,63.7z"/>
		<path d="M169.1,67.2l3.7-7.1h1l3.7,7.1h-1.1l-1.1-2.2h-4.1l-1.1,2.2H169.1z M171.7,64.3h3.3l-1.6-3.3L171.7,64.3z"/>
		<path d="M181.3,67.2v-7.1h1v6.4h4.8v0.7H181.3z"/>
	</g>
	<g>
		<path class="st3" d="M119.6,63.7c0-2.4,1.5-3.6,4.4-3.6c2.9,0,4.4,1.2,4.4,3.6c0,2.4-1.5,3.6-4.4,3.6
			C121.1,67.3,119.6,66.1,119.6,63.7z M121.4,61.4c-0.5,0.5-0.8,1.2-0.8,2.2s0.3,1.8,0.8,2.2c0.5,0.5,1.4,0.7,2.5,0.7
			c1.2,0,2-0.2,2.5-0.7s0.8-1.2,0.8-2.2s-0.3-1.8-0.8-2.2s-1.4-0.7-2.5-0.7C122.8,60.7,122,61,121.4,61.4z"/>
		<path class="st3" d="M132.5,67.2v-7.1h3.3c1.1,0,1.9,0.2,2.4,0.6c0.6,0.4,0.8,0.9,0.8,1.6c0,0.7-0.3,1.3-0.8,1.6
			c-0.6,0.4-1.4,0.6-2.4,0.6h-2.3v2.7H132.5z M133.6,63.8h2.2c0.5,0,0.9,0,1.2-0.1c0.3-0.1,0.6-0.2,0.7-0.4c0.2-0.2,0.3-0.3,0.3-0.5
			s0.1-0.3,0.1-0.5s0-0.4-0.1-0.5s-0.2-0.3-0.3-0.5c-0.2-0.2-0.4-0.3-0.7-0.4c-0.3-0.1-0.7-0.1-1.2-0.1h-2.2V63.8z"/>
		<path class="st3" d="M142,60.9v-0.7h7.6v0.7h-3.3v6.4h-1v-6.4H142z"/>
		<path class="st3" d="M153.3,67.2v-7.1h1v7.1H153.3z"/>
		<path class="st3" d="M158.5,63.7c0-2.4,1.5-3.6,4.4-3.6c1,0,2,0.1,2.9,0.4v0.7c-0.9-0.3-1.8-0.4-2.8-0.4c-1.2,0-2.1,0.2-2.6,0.7
			c-0.6,0.5-0.8,1.2-0.8,2.2s0.3,1.8,0.8,2.2c0.6,0.5,1.4,0.7,2.6,0.7c1,0,1.9-0.1,2.8-0.4v0.7c-0.9,0.3-1.8,0.4-2.8,0.4
			c0,0,0,0,0,0C159.9,67.3,158.5,66.1,158.5,63.7z"/>
		<path class="st3" d="M169.1,67.2l3.7-7.1h1l3.7,7.1h-1.1l-1.1-2.2h-4.1l-1.1,2.2H169.1z M171.7,64.3h3.3l-1.6-3.3L171.7,64.3z"/>
		<path class="st3" d="M181.3,67.2v-7.1h1v6.4h4.8v0.7H181.3z"/>
	</g>
	<g>
		<path d="M119.6,63.7c0-2.4,1.5-3.6,4.4-3.6c2.9,0,4.4,1.2,4.4,3.6c0,2.4-1.5,3.6-4.4,3.6C121.1,67.3,119.6,66.1,119.6,63.7z
			 M121.4,61.4c-0.5,0.5-0.8,1.2-0.8,2.2s0.3,1.8,0.8,2.2c0.5,0.5,1.4,0.7,2.5,0.7c1.2,0,2-0.2,2.5-0.7s0.8-1.2,0.8-2.2
			s-0.3-1.8-0.8-2.2s-1.4-0.7-2.5-0.7C122.8,60.7,122,61,121.4,61.4z"/>
		<path d="M132.5,67.2v-7.1h3.3c1.1,0,1.9,0.2,2.4,0.6c0.6,0.4,0.8,0.9,0.8,1.6c0,0.7-0.3,1.3-0.8,1.6c-0.6,0.4-1.4,0.6-2.4,0.6
			h-2.3v2.7H132.5z M133.6,63.8h2.2c0.5,0,0.9,0,1.2-0.1c0.3-0.1,0.6-0.2,0.7-0.4c0.2-0.2,0.3-0.3,0.3-0.5s0.1-0.3,0.1-0.5
			s0-0.4-0.1-0.5s-0.2-0.3-0.3-0.5c-0.2-0.2-0.4-0.3-0.7-0.4c-0.3-0.1-0.7-0.1-1.2-0.1h-2.2V63.8z"/>
		<path d="M142,60.9v-0.7h7.6v0.7h-3.3v6.4h-1v-6.4H142z"/>
		<path d="M153.3,67.2v-7.1h1v7.1H153.3z"/>
		<path d="M158.5,63.7c0-2.4,1.5-3.6,4.4-3.6c1,0,2,0.1,2.9,0.4v0.7c-0.9-0.3-1.8-0.4-2.8-0.4c-1.2,0-2.1,0.2-2.6,0.7
			c-0.6,0.5-0.8,1.2-0.8,2.2s0.3,1.8,0.8,2.2c0.6,0.5,1.4,0.7,2.6,0.7c1,0,1.9-0.1,2.8-0.4v0.7c-0.9,0.3-1.8,0.4-2.8,0.4
			c0,0,0,0,0,0C159.9,67.3,158.5,66.1,158.5,63.7z"/>
		<path d="M169.1,67.2l3.7-7.1h1l3.7,7.1h-1.1l-1.1-2.2h-4.1l-1.1,2.2H169.1z M171.7,64.3h3.3l-1.6-3.3L171.7,64.3z"/>
		<path d="M181.3,67.2v-7.1h1v6.4h4.8v0.7H181.3z"/>
	</g>
</g>
</svg>
